<svg xmlns="http://www.w3.org/2000/svg">
	<defs>
		<symbol id="power" viewBox="-171 172 17 17">
			<path class="outer" d="M-162.501,188.536c-4.356,0-7.901-3.61-7.901-8.048c0-2.392,1.038-4.644,2.848-6.18
				c0.633-0.535,1.579-0.458,2.114,0.173c0.536,0.632,0.458,1.578-0.173,2.114c-1.137,0.965-1.789,2.384-1.789,3.893
				c0,2.783,2.199,5.048,4.901,5.048c2.703,0,4.901-2.265,4.901-5.048c0-1.511-0.653-2.931-1.793-3.895
				c-0.633-0.535-0.712-1.481-0.177-2.114c0.534-0.631,1.48-0.712,2.114-0.176c1.814,1.535,2.855,3.789,2.855,6.185
				C-154.6,184.925-158.144,188.536-162.501,188.536z"/>
			<path class="inner" d="M-161.337,179.615c0,0.657-0.521,1.19-1.164,1.19c-0.642,0-1.164-0.533-1.164-1.19v-5.952
				c0-0.657,0.521-1.19,1.164-1.19c0.642,0,1.164,0.533,1.164,1.19V179.615z"/>
		</symbol>
		<symbol id="star" viewBox="-171 172 17 17">
			<path class="outer" d="M-159,178c-0.5,0-1-0.3-1.2-0.8l-1.3-4.1c-0.159-0.468-0.4-0.6-0.8-0.6c-0.4,0-0.7,0.2-0.8,0.6
				l-1.4,4.1c-0.2,0.4-0.6,0.8-1.2,0.8c0,0-4.212,0-4.6,0c-0.461,0-0.7,0.4-0.7,0.8c0,0.3,0.1,0.5,0.3,0.6l3.6,2.5
				c0.409,0.273,0.553,0.835,0.5,1.3c-0.022,0.19-1.6,4.4-1.6,4.5c0,0.4,0.4,0.8,0.8,0.8c0.2,0,0.335-0.073,0.5-0.2l3.6-2.6
				c0.2-0.1,0.4-0.2,0.7-0.2c0.2,0,0.415,0.015,0.7,0.2l3.6,2.6c0.162,0.13,0.3,0.2,0.5,0.2c0.5,0,0.8-0.4,0.8-0.8c0-0.1,0-0.2,0-0.2
				l-1.4-4.1c-0.047-0.115-0.1-0.382-0.1-0.5c0.001-0.4,0.2-0.7,0.5-0.9l3.6-2.6c0.222-0.176,0.4-0.402,0.4-0.7
				c0-0.432-0.312-0.7-0.6-0.7C-154.716,178-159,178-159,178z"/>
		</symbol>
		<symbol id="eye" viewBox="-171 172 17 17">
			<path class="outer" d="M-162.5,174.1c-2.973,0-5.988,2.314-8.4,6.4c2.412,4.086,5.427,6.4,8.4,6.4
				c2.973,0,5.988-2.314,8.4-6.4C-156.511,176.414-159.527,174.1-162.5,174.1z M-162.5,183.122c-1.543,0-2.794-1.253-2.794-2.799
				c0-1.546,1.251-2.799,2.794-2.799c1.543,0,2.794,1.253,2.794,2.799C-159.706,181.868-160.957,183.122-162.5,183.122z"/>
		</symbol>
		<symbol id="cog" viewBox="-171 172 17 17">
			<path d="M-162.543,183.817c-1.933,0-3.5-1.567-3.5-3.5s1.567-3.5,3.5-3.5c1.933,0,3.5,1.567,3.5,3.5
				S-160.61,183.817-162.543,183.817 M-155.543,179h-1.197c-0.141-0.5-0.357-1.158-0.638-1.635l0.846-0.892
				c0.391-0.39,0.391-1.046,0-1.436l-0.707-0.719c-0.39-0.39-1.023-0.396-1.414-0.006l-0.824,0.844
				c-0.477-0.282-1.022-0.501-1.522-0.642v-1.197c0-0.552-0.491-0.817-1.043-0.817h-1c-0.552,0-0.957,0.265-0.957,0.817v1.197
				c-0.5,0.141-1.088,0.357-1.564,0.638l-0.857-0.846c-0.39-0.391-1.029-0.391-1.42,0l-0.71,0.708c-0.39,0.39-0.391,1.023-0.001,1.414
				l0.845,0.938c-0.281,0.477-0.497,1.135-0.639,1.635h-1.197c-0.552,0-0.957,0.265-0.957,0.817v1c0,0.552,0.405,1.183,0.957,1.183
				h1.197c0.141,0.5,0.357,0.975,0.638,1.452l-0.846,0.799c-0.391,0.39-0.391,1.001,0,1.391l0.708,0.696
				c0.39,0.39,1.023,0.384,1.414-0.006l0.867-0.848c0.477,0.281,1.064,0.493,1.564,0.635v1.197c0,0.552,0.405,1.183,0.957,1.183h1
				c0.552,0,1.043-0.631,1.043-1.183v-1.197c0.5-0.141,1.046-0.357,1.522-0.638l0.836,0.846c0.39,0.391,1.018,0.391,1.408,0
				l0.705-0.708c0.39-0.391,0.389-1.023-0.001-1.414l-0.847-0.754c0.281-0.476,0.496-0.952,0.638-1.452h1.197
				c0.552,0,1.043-0.631,1.043-1.183v-1C-154.5,179.265-154.991,179-155.543,179"/>
		</symbol>
		<symbol id="trash" viewBox="-171 172 17 17">
			<path d="M-160.367,174.214h4.724c0.631,0,1.143,0.512,1.143,1.143s-0.512,1.143-1.143,1.143h-1.143v10.286
				c0,0.947-0.767,1.714-1.714,1.714h-8c-0.947,0-1.714-0.767-1.714-1.714V176.5h-1.143c-0.631,0-1.143-0.512-1.143-1.143
				s0.512-1.143,1.143-1.143h4.724c-0.097-0.168-0.153-0.363-0.153-0.571c0-0.631,0.512-1.143,1.143-1.143h2.286
				c0.631,0,1.143,0.512,1.143,1.143C-160.214,173.851-160.27,174.046-160.367,174.214z M-158.5,175.929h-8v10.857h8V175.929z
				 M-164.214,185.071c0,0.315-0.256,0.571-0.571,0.571s-0.571-0.256-0.571-0.571v-7.429c0-0.315,0.256-0.571,0.571-0.571
				s0.571,0.256,0.571,0.571V185.071z M-161.929,185.071c0,0.315-0.256,0.571-0.571,0.571s-0.571-0.256-0.571-0.571v-7.429
				c0-0.315,0.256-0.571,0.571-0.571s0.571,0.256,0.571,0.571V185.071z M-159.643,185.071c0,0.315-0.256,0.571-0.571,0.571
				s-0.571-0.256-0.571-0.571v-7.429c0-0.315,0.256-0.571,0.571-0.571s0.571,0.256,0.571,0.571V185.071z"/>
		</symbol>
		<symbol id="close" viewBox="-171 172 17 17">
			<path d="M-157.55,175.55c-0.356-0.356-2.5,1.204-4.95,3.556c-2.449-2.352-4.593-3.912-4.95-3.556
				c-0.356,0.356,1.204,2.5,3.556,4.95c-2.352,2.449-3.912,4.593-3.556,4.95c0.356,0.356,2.5-1.204,4.95-3.556
				c2.449,2.352,4.593,3.912,4.95,3.556c0.356-0.356-1.204-2.5-3.556-4.95C-158.754,178.051-157.194,175.907-157.55,175.55z"/>
		</symbol>
	</defs>
</svg>
